<?xml version="1.0" encoding="UTF-8"?>
<svg id="Layer_2" data-name="Layer 2" xmlns="http://www.w3.org/2000/svg" viewBox="0 0 750 750">
  <defs>
    <style>
      .cls-1 {
        fill: #fff;
      }

      .cls-2 {
        fill: #666;
      }

      .cls-3 {
        fill: #afe3c0;
      }
    </style>
  </defs>
  <g id="Layer_1-2" data-name="Layer 1">
    <g>
      <circle class="cls-3" cx="375" cy="375" r="375"/>
      <circle class="cls-1" cx="375.13" cy="382.19" r="260.13"/>
    </g>
    <g>
      <path class="cls-3" d="m240.5,494.5v-225h291.89v225H240.5Zm50.27-112.87s.07,0,.11,0c0,22.37.02,44.75-.03,67.12,0,2.16.22,3.57,2.95,3.57,28.71-.06,57.42-.04,86.13-.04.38,0,.76.02,1.12-.06,2-.42,4.17-.73,3.62-3.64-.46-2.42-.06-5.17-4.23-5.04-9.14.3-18.3.07-27.45.06-16.68-.01-33.35-.02-50.03-.02-2.38,0-4.66-.08-4.66-3.39.03-17.62.05-35.25.03-52.87,0-2.26,1.09-3.16,3.2-3.18,1.63-.01,3.26-.06,4.89-.06,20.44,0,40.87-.02,61.31.08,3.06.01,4.59-.61,4.45-4.14-.12-2.92-1-4.1-3.95-3.88-2.24.17-4.51.01-6.77.01-19.43.01-38.87.01-58.3.05-2.59,0-4.89-.17-4.88-3.6.05-16.62.09-33.25.11-49.87,0-2.64,1.19-3.93,3.87-3.86,1.63.04,3.26,0,4.89,0,23.95,0,47.89-.05,71.84.07,3.3.02,3.65-1.5,3.61-4.13-.04-2.39-.15-3.96-3.34-3.94-28.46.11-56.92.08-85.38.05-2.35,0-3.2.61-3.19,3.22.13,22.5.07,45,.07,67.49Zm169.37-62.72v-.03c12.53,0,25.07-.04,37.6.03,2.72.02,3.82-.91,3.7-3.73-.11-2.5-.14-4.32-3.51-4.31-28.2.09-56.4.09-84.61.04-2.5,0-3.63.75-3.64,3.4-.01,5.49-.42,10.99-.4,16.48.05,15.49.35,30.98.35,46.47,0,15.49-.27,30.98-.36,46.47-.05,8.5.09,17-.02,25.49-.05,3.77,2.53,2.93,4.65,3.02,2.07.09,3.94.26,3.92-2.91-.1-20.62.02-41.23-.16-61.85-.03-2.88.77-3.84,3.45-3.84,3.76,0,7.52-.15,11.28-.16,17.42-.03,34.84-.02,52.27-.1,1.26,0,3.49-.39,3.61-.95.46-2.14.61-4.51.06-6.59-.18-.69-2.77-1.07-4.26-1.08-20.93-.07-41.86-.09-62.8,0-3.09.01-4.13-.96-4.07-4.12.3-15.1.47-30.21.5-45.31.01-6.2-.13-6.36,6.34-6.4,12.03-.06,24.07-.02,36.1-.02Z"/>
      <path class="cls-2" d="m290.77,381.63c0-22.5.05-45-.07-67.49-.01-2.61.83-3.22,3.19-3.22,28.46.04,56.92.06,85.38-.05,3.19-.01,3.31,1.55,3.34,3.94.04,2.62-.31,4.14-3.61,4.13-23.95-.12-47.89-.07-71.84-.07-1.63,0-3.26.05-4.89,0-2.68-.07-3.87,1.22-3.87,3.86-.02,16.62-.07,33.25-.11,49.87,0,3.43,2.29,3.6,4.88,3.6,19.43-.04,38.87-.04,58.3-.05,2.26,0,4.52.16,6.77-.01,2.95-.22,3.83.96,3.95,3.88.15,3.53-1.38,4.16-4.45,4.14-20.44-.1-40.87-.07-61.31-.08-1.63,0-3.26.05-4.89.06-2.12.02-3.21.91-3.2,3.18.02,17.62,0,35.25-.03,52.87,0,3.31,2.28,3.39,4.66,3.39,16.68,0,33.35.01,50.03.02,9.15,0,18.31.23,27.45-.06,4.18-.14,3.77,2.61,4.23,5.04.55,2.9-1.63,3.21-3.62,3.64-.36.08-.75.06-1.12.06-28.71,0-57.42-.02-86.13.04-2.73,0-2.96-1.41-2.95-3.57.05-22.37.03-44.75.03-67.12-.04,0-.07,0-.11,0Z"/>
      <path class="cls-2" d="m460.14,318.91c-12.03,0-24.07-.05-36.1.02-6.47.03-6.33.2-6.34,6.4-.03,15.1-.2,30.21-.5,45.31-.06,3.17.98,4.14,4.07,4.12,20.93-.09,41.86-.07,62.8,0,1.49,0,4.08.38,4.26,1.08.54,2.08.4,4.45-.06,6.59-.12.56-2.35.95-3.61.95-17.42.08-34.84.07-52.27.1-3.76,0-7.52.16-11.28.16-2.68,0-3.48.96-3.45,3.84.18,20.62.06,41.23.16,61.85.02,3.17-1.85,3-3.92,2.91-2.13-.09-4.7.75-4.65-3.02.11-8.5-.03-16.99.02-25.49.1-15.49.36-30.98.36-46.47,0-15.49-.29-30.98-.35-46.47-.02-5.49.39-10.98.4-16.48,0-2.65,1.14-3.4,3.64-3.4,28.2.04,56.4.05,84.61-.04,3.37-.01,3.4,1.82,3.51,4.31.12,2.83-.98,3.75-3.7,3.73-12.53-.07-25.07-.03-37.6-.03v.03Z"/>
    </g>
  </g>
</svg>